<svg width="143" height="36" viewBox="0 0 143 36" fill="none" xmlns="http://www.w3.org/2000/svg">
  <path
    d="M36 18C36 8.05887 27.9411 0 18 0C8.05887 0 0 8.05887 0 18C0 27.9411 8.05887 36 18 36C27.9411 36 36 27.9411 36 18Z"
    fill="#B497EE" />
  <path
    d="M28.125 18C28.125 12.4081 23.5919 7.875 18 7.875C12.4081 7.875 7.875 12.4081 7.875 18C7.875 23.5919 12.4081 28.125 18 28.125C23.5919 28.125 28.125 23.5919 28.125 18Z"
    fill="white" />
  <path
    d="M59.652 23H57.276V20.822H57.204C56.772 21.566 56.13 22.166 55.278 22.622C54.438 23.078 53.472 23.306 52.38 23.306C50.52 23.306 48.93 22.628 47.61 21.272C46.29 19.916 45.63 18.242 45.63 16.25C45.63 14.246 46.338 12.572 47.754 11.228C49.182 9.872 50.946 9.194 53.046 9.194C54.546 9.194 55.932 9.608 57.204 10.436C58.476 11.264 59.292 12.356 59.652 13.712H56.88C56.544 13.052 56.034 12.524 55.35 12.128C54.678 11.732 53.91 11.534 53.046 11.534C51.702 11.534 50.574 12.002 49.662 12.938C48.75 13.862 48.294 14.966 48.294 16.25C48.294 17.534 48.732 18.644 49.608 19.58C50.496 20.504 51.57 20.966 52.83 20.966C53.874 20.966 54.816 20.624 55.656 19.94C56.496 19.256 57 18.428 57.168 17.456H53.046V15.008H59.652V23ZM64.4563 23H61.9003V9.5H64.4563V13.874L64.4743 13.892H64.4923L64.5103 13.874C64.8223 13.418 65.2363 13.04 65.7523 12.74C66.2803 12.428 66.8623 12.272 67.4983 12.272C68.7103 12.272 69.6823 12.68 70.4143 13.496C71.1583 14.312 71.5303 15.38 71.5303 16.7V23H68.9743V17.024C68.9743 16.388 68.7523 15.848 68.3083 15.404C67.8763 14.948 67.3483 14.72 66.7243 14.72C66.0883 14.72 65.5483 14.948 65.1043 15.404C64.6723 15.848 64.4563 16.388 64.4563 17.024V23ZM82.0832 17.78C82.0832 16.832 81.8072 16.058 81.2552 15.458C80.7032 14.846 79.9652 14.54 79.0412 14.54C78.1292 14.54 77.3912 14.846 76.8272 15.458C76.2752 16.07 75.9992 16.844 75.9992 17.78C75.9992 18.728 76.2752 19.508 76.8272 20.12C77.3912 20.732 78.1292 21.038 79.0412 21.038C79.9652 21.038 80.7032 20.738 81.2552 20.138C81.8072 19.526 82.0832 18.74 82.0832 17.78ZM84.7472 17.78C84.7472 19.352 84.1952 20.666 83.0912 21.722C81.9872 22.778 80.6372 23.306 79.0412 23.306C77.4572 23.306 76.1072 22.778 74.9912 21.722C73.8872 20.666 73.3352 19.352 73.3352 17.78C73.3352 16.22 73.8872 14.912 74.9912 13.856C76.1072 12.8 77.4572 12.272 79.0412 12.272C80.6372 12.272 81.9872 12.8 83.0912 13.856C84.1952 14.912 84.7472 16.22 84.7472 17.78ZM103.231 9.5L99.4508 23H96.9308L94.5368 13.946H94.4648L92.0528 23H89.5328L85.7348 9.5H88.3448L90.7568 18.572H90.8288L93.2048 9.5H95.7608L98.1368 18.572H98.2088L100.621 9.5H103.231ZM112.835 15.818V23H110.279V21.488L110.225 21.47C109.457 22.694 108.389 23.306 107.021 23.306C104.297 23.306 102.935 22.16 102.935 19.868C102.935 18.812 103.283 18.002 103.979 17.438C104.675 16.874 105.725 16.592 107.129 16.592H110.279V15.818C110.279 15.23 110.105 14.84 109.757 14.648C109.421 14.444 108.887 14.342 108.155 14.342C107.435 14.342 106.895 14.444 106.535 14.648C106.187 14.852 106.013 15.242 106.013 15.818H103.565C103.565 14.642 103.973 13.76 104.789 13.172C105.605 12.572 106.727 12.272 108.155 12.272C109.595 12.272 110.735 12.572 111.575 13.172C112.415 13.76 112.835 14.642 112.835 15.818ZM110.279 19.346V18.59H107.129C106.097 18.59 105.581 18.992 105.581 19.796C105.581 20.228 105.725 20.54 106.013 20.732C106.301 20.912 106.829 21.002 107.597 21.002C108.413 21.002 109.061 20.846 109.541 20.534C110.033 20.21 110.279 19.814 110.279 19.346ZM114.986 23V9.5H117.542V23H114.986ZM119.697 23V9.5H122.253V23H119.697ZM135.334 17.78C135.334 18.14 135.286 18.53 135.19 18.95H126.784C126.928 19.538 127.27 20.042 127.81 20.462C128.362 20.882 128.992 21.092 129.7 21.092C130.216 21.092 130.678 20.978 131.086 20.75C131.494 20.51 131.812 20.216 132.04 19.868H134.812C134.44 20.912 133.786 21.746 132.85 22.37C131.914 22.994 130.864 23.306 129.7 23.306C128.128 23.306 126.79 22.778 125.686 21.722C124.594 20.654 124.048 19.34 124.048 17.78C124.048 16.22 124.6 14.912 125.704 13.856C126.808 12.8 128.152 12.272 129.736 12.272C131.284 12.272 132.604 12.806 133.696 13.874C134.788 14.942 135.334 16.244 135.334 17.78ZM126.82 16.736H132.598C132.466 16.076 132.142 15.53 131.626 15.098C131.122 14.654 130.492 14.432 129.736 14.432C128.98 14.432 128.338 14.654 127.81 15.098C127.282 15.542 126.952 16.088 126.82 16.736ZM137.459 14.558H136.505V12.578H137.459V10.22H140.015V12.578H141.797V14.558H140.015V20.102C140.015 20.282 140.075 20.432 140.195 20.552C140.315 20.672 140.459 20.732 140.627 20.732H141.797V23H140.627C139.679 23 138.911 22.724 138.323 22.172C137.747 21.608 137.459 20.858 137.459 19.922V14.558Z"
    fill="#0F1419" />
</svg>
  