<svg width="127" height="23" viewBox="0 0 127 23" fill="none" xmlns="http://www.w3.org/2000/svg">
  <path
    d="M13.08 6.168C12.856 6.168 12.68 6.232 12.552 6.36C12.44 6.472 12.4 6.624 12.432 6.816C12.432 6.864 12.488 7.072 12.6 7.44C12.728 7.808 12.792 8.136 12.792 8.424C12.792 9.832 12.328 10.936 11.4 11.736C10.488 12.536 9.24 12.936 7.656 12.936C6.104 12.936 5.16 12.992 4.824 13.104C4.392 13.248 4.176 13.52 4.176 13.92C4.176 14.208 4.296 14.424 4.536 14.568C5.256 14.344 6.296 14.232 7.656 14.232C12.168 14.232 14.424 15.592 14.424 18.312C14.424 21.112 12.168 22.512 7.656 22.512C3.128 22.512 0.864 21.112 0.864 18.312C0.864 17.704 1.192 17.008 1.848 16.224C1.288 15.616 1.008 14.992 1.008 14.352C1.008 13.584 1.264 12.928 1.776 12.384C2.304 11.824 3.064 11.496 4.056 11.4V11.304C3.624 11 3.256 10.584 2.952 10.056C2.648 9.528 2.496 8.984 2.496 8.424C2.496 7.048 2.976 5.92 3.936 5.04C4.912 4.144 6.152 3.696 7.656 3.696C8.92 3.696 10.008 4.072 10.92 4.824C11.48 4.072 12.2 3.696 13.08 3.696H14.016V6.168H13.08ZM4.416 18.312C4.416 18.872 4.68 19.264 5.208 19.488C5.736 19.712 6.552 19.824 7.656 19.824C8.744 19.824 9.552 19.712 10.08 19.488C10.608 19.264 10.872 18.872 10.872 18.312C10.872 17.256 9.8 16.728 7.656 16.728C5.496 16.728 4.416 17.256 4.416 18.312ZM8.928 9.696C9.296 9.344 9.48 8.92 9.48 8.424C9.48 7.928 9.296 7.504 8.928 7.152C8.576 6.784 8.152 6.6 7.656 6.6C7.16 6.6 6.728 6.784 6.36 7.152C5.992 7.504 5.808 7.928 5.808 8.424C5.808 8.92 5.984 9.344 6.336 9.696C6.704 10.048 7.144 10.224 7.656 10.224C8.152 10.224 8.576 10.048 8.928 9.696ZM20.1293 18H16.7213V-1.43051e-06H20.1293V5.832L20.1533 5.856H20.1773L20.2013 5.832C20.6173 5.224 21.1693 4.72 21.8573 4.32C22.5613 3.904 23.3373 3.696 24.1853 3.696C25.8013 3.696 27.0973 4.24 28.0733 5.328C29.0653 6.416 29.5613 7.84 29.5613 9.6V18H26.1533V10.032C26.1533 9.184 25.8573 8.464 25.2653 7.872C24.6893 7.264 23.9853 6.96 23.1533 6.96C22.3053 6.96 21.5853 7.264 20.9933 7.872C20.4173 8.464 20.1293 9.184 20.1293 10.032V18ZM43.6318 11.04C43.6318 9.776 43.2638 8.744 42.5278 7.944C41.7918 7.128 40.8078 6.72 39.5758 6.72C38.3598 6.72 37.3758 7.128 36.6238 7.944C35.8878 8.76 35.5198 9.792 35.5198 11.04C35.5198 12.304 35.8878 13.344 36.6238 14.16C37.3758 14.976 38.3598 15.384 39.5758 15.384C40.8078 15.384 41.7918 14.984 42.5278 14.184C43.2638 13.368 43.6318 12.32 43.6318 11.04ZM47.1838 11.04C47.1838 13.136 46.4478 14.888 44.9758 16.296C43.5038 17.704 41.7038 18.408 39.5758 18.408C37.4638 18.408 35.6638 17.704 34.1758 16.296C32.7038 14.888 31.9678 13.136 31.9678 11.04C31.9678 8.96 32.7038 7.216 34.1758 5.808C35.6638 4.4 37.4638 3.696 39.5758 3.696C41.7038 3.696 43.5038 4.4 44.9758 5.808C46.4478 7.216 47.1838 8.96 47.1838 11.04Z"
    fill="#8D4ED9" />
  <path
    d="M47.9147 4.104H51.4427L54.1787 12.72H54.2267L56.9867 4.104H60.2747L63.0827 12.72H63.1307L65.8427 4.104H69.3707L64.7147 18H61.4507L58.6667 9.552H58.6187L55.8107 18H52.5467L47.9147 4.104ZM83.04 8.424V18H79.632V15.984L79.56 15.96C78.536 17.592 77.112 18.408 75.288 18.408C71.656 18.408 69.84 16.88 69.84 13.824C69.84 12.416 70.304 11.336 71.232 10.584C72.16 9.832 73.56 9.456 75.432 9.456H79.632V8.424C79.632 7.64 79.4 7.12 78.936 6.864C78.488 6.592 77.776 6.456 76.8 6.456C75.84 6.456 75.12 6.592 74.64 6.864C74.176 7.136 73.944 7.656 73.944 8.424H70.68C70.68 6.856 71.224 5.68 72.312 4.896C73.4 4.096 74.896 3.696 76.8 3.696C78.72 3.696 80.24 4.096 81.36 4.896C82.48 5.68 83.04 6.856 83.04 8.424ZM79.632 13.128V12.12H75.432C74.056 12.12 73.368 12.656 73.368 13.728C73.368 14.304 73.56 14.72 73.944 14.976C74.328 15.216 75.032 15.336 76.056 15.336C77.144 15.336 78.008 15.128 78.648 14.712C79.304 14.28 79.632 13.752 79.632 13.128ZM85.9088 18V-1.43051e-06H89.3168V18H85.9088ZM92.19 18V-1.43051e-06H95.598V18H92.19ZM113.039 11.04C113.039 11.52 112.975 12.04 112.847 12.6H101.639C101.831 13.384 102.287 14.056 103.007 14.616C103.743 15.176 104.583 15.456 105.527 15.456C106.215 15.456 106.831 15.304 107.375 15C107.919 14.68 108.343 14.288 108.647 13.824H112.343C111.847 15.216 110.975 16.328 109.727 17.16C108.479 17.992 107.079 18.408 105.527 18.408C103.431 18.408 101.647 17.704 100.175 16.296C98.7193 14.872 97.9913 13.12 97.9913 11.04C97.9913 8.96 98.7273 7.216 100.199 5.808C101.671 4.4 103.463 3.696 105.575 3.696C107.639 3.696 109.399 4.408 110.855 5.832C112.311 7.256 113.039 8.992 113.039 11.04ZM101.687 9.648H109.391C109.215 8.768 108.783 8.04 108.095 7.464C107.423 6.872 106.583 6.576 105.575 6.576C104.567 6.576 103.711 6.872 103.007 7.464C102.303 8.056 101.863 8.784 101.687 9.648ZM115.872 6.744H114.6V4.104H115.872V0.959999H119.28V4.104H121.656V6.744H119.28V14.136C119.28 14.376 119.36 14.576 119.52 14.736C119.68 14.896 119.872 14.976 120.096 14.976H121.656V18H120.096C118.832 18 117.808 17.632 117.024 16.896C116.256 16.144 115.872 15.144 115.872 13.896V6.744ZM126.234 17.64C125.882 18.008 125.45 18.192 124.938 18.192C124.426 18.192 123.986 18.008 123.618 17.64C123.266 17.272 123.09 16.84 123.09 16.344C123.09 15.848 123.266 15.416 123.618 15.048C123.986 14.68 124.426 14.496 124.938 14.496C125.45 14.496 125.882 14.68 126.234 15.048C126.602 15.416 126.786 15.848 126.786 16.344C126.786 16.84 126.602 17.272 126.234 17.64Z"
    fill="#0F1419" />
</svg>
  